<svg xmlns="http://www.w3.org/2000/svg" xmlns:xlink="http://www.w3.org/1999/xlink" width="500" zoomAndPan="magnify" viewBox="0 0 375 374.999991" height="500" preserveAspectRatio="xMidYMid meet" version="1.0"><defs><g/></defs><g fill="#ffffff" fill-opacity="0.4"><g transform="translate(-10.88641, 239.874864)"><g><path d="M 143.109375 3.09375 L 35.3125 -67.265625 L 41.8125 -100.296875 L 168.21875 -124.234375 L 159.953125 -82.328125 L 122.59375 -76.84375 L 95.75 -72.375 L 118.890625 -58.046875 L 151.375 -38.828125 Z M 143.109375 3.09375 "/></g></g></g><g fill="#ffffff" fill-opacity="0.4"><g transform="translate(107.308096, 263.177721)"><g><path d="M 16.75 21.15625 L 132.875 -187.015625 L 172.625 -179.1875 L 56.25 28.9375 Z M 16.75 21.15625 "/></g></g></g><g fill="#ffffff" fill-opacity="0.4"><g transform="translate(218.249724, 285.050622)"><g><path d="M 25.984375 -19.984375 L 34.25 -61.90625 L 71.609375 -67.375 L 98.4375 -71.84375 L 75.3125 -86.171875 L 42.828125 -105.40625 L 51.09375 -147.3125 L 158.9375 -77.21875 L 152.4375 -44.1875 Z M 25.984375 -19.984375 "/></g></g></g><g fill="#072ac8" fill-opacity="1"><g transform="translate(-20.41759, 225.662476)"><g><path d="M 143.109375 3.09375 L 35.3125 -67.265625 L 41.8125 -100.296875 L 168.21875 -124.234375 L 159.953125 -82.328125 L 122.59375 -76.84375 L 95.75 -72.375 L 118.890625 -58.046875 L 151.375 -38.828125 Z M 143.109375 3.09375 "/></g></g></g><g fill="#072ac8" fill-opacity="1"><g transform="translate(97.776916, 248.965332)"><g><path d="M 16.75 21.15625 L 132.875 -187.015625 L 172.625 -179.1875 L 56.25 28.9375 Z M 16.75 21.15625 "/></g></g></g><g fill="#072ac8" fill-opacity="1"><g transform="translate(208.718543, 270.838234)"><g><path d="M 25.984375 -19.984375 L 34.25 -61.90625 L 71.609375 -67.375 L 98.4375 -71.84375 L 75.3125 -86.171875 L 42.828125 -105.40625 L 51.09375 -147.3125 L 158.9375 -77.21875 L 152.4375 -44.1875 Z M 25.984375 -19.984375 "/></g></g></g></svg>