<svg xmlns="http://www.w3.org/2000/svg" xmlns:xlink="http://www.w3.org/1999/xlink" width="700" zoomAndPan="magnify" viewBox="0 0 525 374.999991" height="500" preserveAspectRatio="xMidYMid meet" version="1.0"><defs><g/></defs><g fill="#ffffff" fill-opacity="1"><g transform="translate(0.0000063, 215.673897)"><g><path d="M 65.75 -21.484375 L 43.546875 -25.234375 C 42.492188 -20.234375 39.5625 -17.734375 34.75 -17.734375 C 32.15625 -17.734375 30.132812 -18.691406 28.6875 -20.609375 C 27.25 -22.535156 26.53125 -25.28125 26.53125 -28.84375 C 26.53125 -32.488281 27.25 -35.273438 28.6875 -37.203125 C 30.132812 -39.128906 32.15625 -40.09375 34.75 -40.09375 C 39.5625 -40.09375 42.492188 -37.59375 43.546875 -32.59375 L 65.75 -36.34375 C 64.59375 -43.550781 61.347656 -49.097656 56.015625 -52.984375 C 50.679688 -56.878906 43.59375 -58.828125 34.75 -58.828125 C 24.75 -58.828125 17.03125 -56.234375 11.59375 -51.046875 C 6.164062 -45.859375 3.453125 -38.457031 3.453125 -28.84375 C 3.453125 -19.320312 6.164062 -11.941406 11.59375 -6.703125 C 17.03125 -1.460938 24.75 1.15625 34.75 1.15625 C 43.5 1.15625 50.539062 -0.8125 55.875 -4.75 C 61.207031 -8.695312 64.5 -14.273438 65.75 -21.484375 Z M 65.75 -21.484375 "/></g></g></g><g fill="#ffffff" fill-opacity="1"><g transform="translate(69.054563, 215.673897)"><g><path d="M 66.1875 -57.671875 L 66.1875 0 L 42.6875 0 L 42.6875 -8.078125 C 39.21875 -1.921875 34.3125 1.15625 27.96875 1.15625 C 20.09375 1.15625 14.035156 -1.460938 9.796875 -6.703125 C 5.566406 -11.941406 3.453125 -19.320312 3.453125 -28.84375 C 3.453125 -38.457031 5.566406 -45.859375 9.796875 -51.046875 C 14.035156 -56.234375 20.09375 -58.828125 27.96875 -58.828125 C 34.414062 -58.828125 39.320312 -55.800781 42.6875 -49.75 L 42.6875 -57.671875 Z M 34.75 -17.734375 C 37.34375 -17.734375 39.3125 -18.691406 40.65625 -20.609375 C 42.007812 -22.535156 42.6875 -25.28125 42.6875 -28.84375 C 42.6875 -36.34375 40.039062 -40.09375 34.75 -40.09375 C 29.269531 -40.09375 26.53125 -36.34375 26.53125 -28.84375 C 26.53125 -25.28125 27.226562 -22.535156 28.625 -20.609375 C 30.019531 -18.691406 32.0625 -17.734375 34.75 -17.734375 Z M 34.75 -17.734375 "/></g></g></g><g fill="#ffffff" fill-opacity="1"><g transform="translate(139.839072, 215.673897)"><g><path d="M 16.4375 -61.578125 C 12.6875 -61.578125 9.800781 -62.390625 7.78125 -64.015625 C 5.769531 -65.648438 4.765625 -67.957031 4.765625 -70.9375 C 4.765625 -73.925781 5.769531 -76.234375 7.78125 -77.859375 C 9.800781 -79.492188 12.6875 -80.3125 16.4375 -80.3125 C 20.1875 -80.3125 23.09375 -79.492188 25.15625 -77.859375 C 27.226562 -76.234375 28.265625 -73.925781 28.265625 -70.9375 C 28.265625 -67.957031 27.226562 -65.648438 25.15625 -64.015625 C 23.09375 -62.390625 20.1875 -61.578125 16.4375 -61.578125 Z M 28.265625 -57.671875 L 28.265625 0 L 4.765625 0 L 4.765625 -57.671875 Z M 28.265625 -57.671875 "/></g></g></g><g fill="#ffffff" fill-opacity="1"><g transform="translate(172.708468, 215.673897)"><g><path d="M 34.75 1.15625 C 24.75 1.15625 17.03125 -1.460938 11.59375 -6.703125 C 6.164062 -11.941406 3.453125 -19.320312 3.453125 -28.84375 C 3.453125 -38.457031 6.164062 -45.859375 11.59375 -51.046875 C 17.03125 -56.234375 24.75 -58.828125 34.75 -58.828125 C 44.75 -58.828125 52.488281 -56.234375 57.96875 -51.046875 C 63.445312 -45.859375 66.1875 -38.457031 66.1875 -28.84375 C 66.1875 -19.320312 63.445312 -11.941406 57.96875 -6.703125 C 52.488281 -1.460938 44.75 1.15625 34.75 1.15625 Z M 34.75 -17.734375 C 37.4375 -17.734375 39.5 -18.691406 40.9375 -20.609375 C 42.382812 -22.535156 43.109375 -25.28125 43.109375 -28.84375 C 43.109375 -36.34375 40.320312 -40.09375 34.75 -40.09375 C 29.269531 -40.09375 26.53125 -36.34375 26.53125 -28.84375 C 26.53125 -25.28125 27.226562 -22.535156 28.625 -20.609375 C 30.019531 -18.691406 32.0625 -17.734375 34.75 -17.734375 Z M 34.75 -17.734375 "/></g></g></g><g fill="#ffffff" fill-opacity="1"><g transform="translate(0.0000063, 310.086821)"><g><path d="M 65.75 -21.484375 L 43.546875 -25.234375 C 42.492188 -20.234375 39.5625 -17.734375 34.75 -17.734375 C 32.15625 -17.734375 30.132812 -18.691406 28.6875 -20.609375 C 27.25 -22.535156 26.53125 -25.28125 26.53125 -28.84375 C 26.53125 -32.488281 27.25 -35.273438 28.6875 -37.203125 C 30.132812 -39.128906 32.15625 -40.09375 34.75 -40.09375 C 39.5625 -40.09375 42.492188 -37.59375 43.546875 -32.59375 L 65.75 -36.34375 C 64.59375 -43.550781 61.347656 -49.097656 56.015625 -52.984375 C 50.679688 -56.878906 43.59375 -58.828125 34.75 -58.828125 C 24.75 -58.828125 17.03125 -56.234375 11.59375 -51.046875 C 6.164062 -45.859375 3.453125 -38.457031 3.453125 -28.84375 C 3.453125 -19.320312 6.164062 -11.941406 11.59375 -6.703125 C 17.03125 -1.460938 24.75 1.15625 34.75 1.15625 C 43.5 1.15625 50.539062 -0.8125 55.875 -4.75 C 61.207031 -8.695312 64.5 -14.273438 65.75 -21.484375 Z M 65.75 -21.484375 "/></g></g></g><g fill="#ffffff" fill-opacity="1"><g transform="translate(69.054563, 310.086821)"><g><path d="M 66.1875 -57.671875 L 66.1875 0 L 42.6875 0 L 42.6875 -8.078125 C 39.21875 -1.921875 34.3125 1.15625 27.96875 1.15625 C 20.09375 1.15625 14.035156 -1.460938 9.796875 -6.703125 C 5.566406 -11.941406 3.453125 -19.320312 3.453125 -28.84375 C 3.453125 -38.457031 5.566406 -45.859375 9.796875 -51.046875 C 14.035156 -56.234375 20.09375 -58.828125 27.96875 -58.828125 C 34.414062 -58.828125 39.320312 -55.800781 42.6875 -49.75 L 42.6875 -57.671875 Z M 34.75 -17.734375 C 37.34375 -17.734375 39.3125 -18.691406 40.65625 -20.609375 C 42.007812 -22.535156 42.6875 -25.28125 42.6875 -28.84375 C 42.6875 -36.34375 40.039062 -40.09375 34.75 -40.09375 C 29.269531 -40.09375 26.53125 -36.34375 26.53125 -28.84375 C 26.53125 -25.28125 27.226562 -22.535156 28.625 -20.609375 C 30.019531 -18.691406 32.0625 -17.734375 34.75 -17.734375 Z M 34.75 -17.734375 "/></g></g></g><g fill="#ffffff" fill-opacity="1"><g transform="translate(139.839072, 310.086821)"><g><path d="M 44.703125 -58.828125 C 48.453125 -58.828125 51.957031 -57.984375 55.21875 -56.296875 C 58.488281 -54.617188 61.085938 -51.957031 63.015625 -48.3125 L 47.015625 -33.453125 C 44.128906 -37.390625 40.570312 -39.359375 36.34375 -39.359375 C 34.320312 -39.359375 32.613281 -38.035156 31.21875 -35.390625 C 29.820312 -32.753906 28.789062 -28.9375 28.125 -23.9375 L 28.125 0 L 4.765625 0 L 4.765625 -57.671875 L 28.125 -57.671875 L 28.125 -48.59375 C 31.488281 -55.226562 37.015625 -58.640625 44.703125 -58.828125 Z M 44.703125 -58.828125 "/></g></g></g><g fill="#ffffff" fill-opacity="1"><g transform="translate(203.992054, 310.086821)"><g><path d="M 25.09375 -57.671875 L 1.015625 -57.671875 L 27.6875 0 L 50.46875 0 L 77.4375 -57.671875 L 53.203125 -57.671875 L 39.078125 -27.546875 Z M 25.09375 -57.671875 "/></g></g></g><g fill="#ffffff" fill-opacity="1"><g transform="translate(281.552285, 310.086821)"><g><path d="M 66.1875 -57.671875 L 66.1875 0 L 42.6875 0 L 42.6875 -8.078125 C 39.21875 -1.921875 34.3125 1.15625 27.96875 1.15625 C 20.09375 1.15625 14.035156 -1.460938 9.796875 -6.703125 C 5.566406 -11.941406 3.453125 -19.320312 3.453125 -28.84375 C 3.453125 -38.457031 5.566406 -45.859375 9.796875 -51.046875 C 14.035156 -56.234375 20.09375 -58.828125 27.96875 -58.828125 C 34.414062 -58.828125 39.320312 -55.800781 42.6875 -49.75 L 42.6875 -57.671875 Z M 34.75 -17.734375 C 37.34375 -17.734375 39.3125 -18.691406 40.65625 -20.609375 C 42.007812 -22.535156 42.6875 -25.28125 42.6875 -28.84375 C 42.6875 -36.34375 40.039062 -40.09375 34.75 -40.09375 C 29.269531 -40.09375 26.53125 -36.34375 26.53125 -28.84375 C 26.53125 -25.28125 27.226562 -22.535156 28.625 -20.609375 C 30.019531 -18.691406 32.0625 -17.734375 34.75 -17.734375 Z M 34.75 -17.734375 "/></g></g></g><g fill="#ffffff" fill-opacity="1"><g transform="translate(352.336794, 310.086821)"><g><path d="M 28.265625 -72.09375 L 28.265625 0 L 4.765625 0 L 4.765625 -72.09375 Z M 28.265625 -72.09375 "/></g></g></g><g fill="#ffffff" fill-opacity="1"><g transform="translate(385.20619, 310.086821)"><g><path d="M 44.984375 -58.828125 C 52.191406 -58.828125 57.742188 -56.546875 61.640625 -51.984375 C 65.535156 -47.421875 67.484375 -41.003906 67.484375 -32.734375 L 67.484375 0 L 43.984375 0 L 43.984375 -24.515625 C 43.984375 -29.316406 43.359375 -32.988281 42.109375 -35.53125 C 40.859375 -38.082031 39.03125 -39.359375 36.625 -39.359375 C 32.488281 -39.359375 29.65625 -35.753906 28.125 -28.546875 L 28.125 0 L 4.765625 0 L 4.765625 -72.09375 L 28.125 -72.09375 L 28.125 -48.59375 C 31.582031 -55.226562 37.203125 -58.640625 44.984375 -58.828125 Z M 44.984375 -58.828125 "/></g></g></g><g fill="#ffffff" fill-opacity="1"><g transform="translate(456.423206, 310.086821)"><g><path d="M 34.75 1.15625 C 24.75 1.15625 17.03125 -1.460938 11.59375 -6.703125 C 6.164062 -11.941406 3.453125 -19.320312 3.453125 -28.84375 C 3.453125 -38.457031 6.164062 -45.859375 11.59375 -51.046875 C 17.03125 -56.234375 24.75 -58.828125 34.75 -58.828125 C 44.75 -58.828125 52.488281 -56.234375 57.96875 -51.046875 C 63.445312 -45.859375 66.1875 -38.457031 66.1875 -28.84375 C 66.1875 -19.320312 63.445312 -11.941406 57.96875 -6.703125 C 52.488281 -1.460938 44.75 1.15625 34.75 1.15625 Z M 34.75 -17.734375 C 37.4375 -17.734375 39.5 -18.691406 40.9375 -20.609375 C 42.382812 -22.535156 43.109375 -25.28125 43.109375 -28.84375 C 43.109375 -36.34375 40.320312 -40.09375 34.75 -40.09375 C 29.269531 -40.09375 26.53125 -36.34375 26.53125 -28.84375 C 26.53125 -25.28125 27.226562 -22.535156 28.625 -20.609375 C 30.019531 -18.691406 32.0625 -17.734375 34.75 -17.734375 Z M 34.75 -17.734375 "/></g></g></g><g fill="#2b16bd" fill-opacity="1"><g transform="translate(243.045331, 194.431023)"><g><path d="M 71.171875 1.546875 L 17.546875 -33.453125 L 20.796875 -49.890625 L 83.65625 -61.78125 L 79.546875 -40.953125 L 60.96875 -38.21875 L 47.625 -36 L 59.125 -28.875 L 75.28125 -19.296875 Z M 71.171875 1.546875 "/></g></g></g><g fill="#2b16bd" fill-opacity="1"><g transform="translate(310.639979, 207.75777)"><g><path d="M 8.34375 10.515625 L 66.078125 -93 L 85.859375 -89.109375 L 27.96875 14.390625 Z M 8.34375 10.515625 "/></g></g></g><g fill="#2b16bd" fill-opacity="1"><g transform="translate(374.627738, 220.373395)"><g><path d="M 12.921875 -9.9375 L 17.03125 -30.78125 L 35.609375 -33.515625 L 48.953125 -35.734375 L 37.453125 -42.859375 L 21.296875 -52.4375 L 25.40625 -73.265625 L 79.046875 -38.40625 L 75.796875 -21.96875 Z M 12.921875 -9.9375 "/></g></g></g></svg>