<svg xmlns="http://www.w3.org/2000/svg" xmlns:xlink="http://www.w3.org/1999/xlink" width="1920" zoomAndPan="magnify" viewBox="0 0 1440 809.999993" height="1080" preserveAspectRatio="xMidYMid meet" version="1.0"><defs><g/></defs><g fill="#ffffff" fill-opacity="1"><g transform="translate(0.00000622222, 375.949923)"><g><path d="M 180.609375 -59.015625 L 119.609375 -69.3125 C 116.703125 -55.582031 108.648438 -48.71875 95.453125 -48.71875 C 88.328125 -48.71875 82.78125 -51.359375 78.8125 -56.640625 C 74.851562 -61.921875 72.875 -69.445312 72.875 -79.21875 C 72.875 -89.25 74.851562 -96.90625 78.8125 -102.1875 C 82.78125 -107.46875 88.328125 -110.109375 95.453125 -110.109375 C 108.648438 -110.109375 116.703125 -103.242188 119.609375 -89.515625 L 180.609375 -99.8125 C 177.441406 -119.613281 168.53125 -134.859375 153.875 -145.546875 C 139.21875 -156.242188 119.742188 -161.59375 95.453125 -161.59375 C 67.992188 -161.59375 46.800781 -154.460938 31.875 -140.203125 C 16.957031 -125.953125 9.5 -105.625 9.5 -79.21875 C 9.5 -53.070312 16.957031 -32.800781 31.875 -18.40625 C 46.800781 -4.019531 67.992188 3.171875 95.453125 3.171875 C 119.484375 3.171875 138.820312 -2.238281 153.46875 -13.0625 C 168.125 -23.894531 177.171875 -39.210938 180.609375 -59.015625 Z M 180.609375 -59.015625 "/></g></g></g><g fill="#ffffff" fill-opacity="1"><g transform="translate(189.68026, 375.949923)"><g><path d="M 181.796875 -158.421875 L 181.796875 0 L 117.234375 0 L 117.234375 -22.1875 C 107.734375 -5.28125 94.269531 3.171875 76.84375 3.171875 C 55.1875 3.171875 38.546875 -4.019531 26.921875 -18.40625 C 15.304688 -32.800781 9.5 -53.070312 9.5 -79.21875 C 9.5 -105.625 15.304688 -125.953125 26.921875 -140.203125 C 38.546875 -154.460938 55.1875 -161.59375 76.84375 -161.59375 C 94.53125 -161.59375 107.992188 -153.273438 117.234375 -136.640625 L 117.234375 -158.421875 Z M 95.453125 -48.71875 C 102.578125 -48.71875 107.988281 -51.359375 111.6875 -56.640625 C 115.382812 -61.921875 117.234375 -69.445312 117.234375 -79.21875 C 117.234375 -99.8125 109.972656 -110.109375 95.453125 -110.109375 C 80.398438 -110.109375 72.875 -99.8125 72.875 -79.21875 C 72.875 -69.445312 74.785156 -61.921875 78.609375 -56.640625 C 82.441406 -51.359375 88.054688 -48.71875 95.453125 -48.71875 Z M 95.453125 -48.71875 "/></g></g></g><g fill="#ffffff" fill-opacity="1"><g transform="translate(384.112376, 375.949923)"><g><path d="M 45.15625 -169.125 C 34.851562 -169.125 26.929688 -171.367188 21.390625 -175.859375 C 15.847656 -180.347656 13.078125 -186.679688 13.078125 -194.859375 C 13.078125 -203.046875 15.847656 -209.382812 21.390625 -213.875 C 26.929688 -218.363281 34.851562 -220.609375 45.15625 -220.609375 C 55.445312 -220.609375 63.429688 -218.363281 69.109375 -213.875 C 74.785156 -209.382812 77.625 -203.046875 77.625 -194.859375 C 77.625 -186.679688 74.785156 -180.347656 69.109375 -175.859375 C 63.429688 -171.367188 55.445312 -169.125 45.15625 -169.125 Z M 77.625 -158.421875 L 77.625 0 L 13.078125 0 L 13.078125 -158.421875 Z M 77.625 -158.421875 "/></g></g></g><g fill="#ffffff" fill-opacity="1"><g transform="translate(474.398604, 375.949923)"><g><path d="M 95.453125 3.171875 C 67.992188 3.171875 46.800781 -4.019531 31.875 -18.40625 C 16.957031 -32.800781 9.5 -53.070312 9.5 -79.21875 C 9.5 -105.625 16.957031 -125.953125 31.875 -140.203125 C 46.800781 -154.460938 67.992188 -161.59375 95.453125 -161.59375 C 122.910156 -161.59375 144.164062 -154.460938 159.21875 -140.203125 C 174.269531 -125.953125 181.796875 -105.625 181.796875 -79.21875 C 181.796875 -53.070312 174.269531 -32.800781 159.21875 -18.40625 C 144.164062 -4.019531 122.910156 3.171875 95.453125 3.171875 Z M 95.453125 -48.71875 C 102.847656 -48.71875 108.523438 -51.359375 112.484375 -56.640625 C 116.441406 -61.921875 118.421875 -69.445312 118.421875 -79.21875 C 118.421875 -99.8125 110.765625 -110.109375 95.453125 -110.109375 C 80.398438 -110.109375 72.875 -99.8125 72.875 -79.21875 C 72.875 -69.445312 74.785156 -61.921875 78.609375 -56.640625 C 82.441406 -51.359375 88.054688 -48.71875 95.453125 -48.71875 Z M 95.453125 -48.71875 "/></g></g></g><g fill="#ffffff" fill-opacity="1"><g transform="translate(0.00000622222, 635.284979)"><g><path d="M 180.609375 -59.015625 L 119.609375 -69.3125 C 116.703125 -55.582031 108.648438 -48.71875 95.453125 -48.71875 C 88.328125 -48.71875 82.78125 -51.359375 78.8125 -56.640625 C 74.851562 -61.921875 72.875 -69.445312 72.875 -79.21875 C 72.875 -89.25 74.851562 -96.90625 78.8125 -102.1875 C 82.78125 -107.46875 88.328125 -110.109375 95.453125 -110.109375 C 108.648438 -110.109375 116.703125 -103.242188 119.609375 -89.515625 L 180.609375 -99.8125 C 177.441406 -119.613281 168.53125 -134.859375 153.875 -145.546875 C 139.21875 -156.242188 119.742188 -161.59375 95.453125 -161.59375 C 67.992188 -161.59375 46.800781 -154.460938 31.875 -140.203125 C 16.957031 -125.953125 9.5 -105.625 9.5 -79.21875 C 9.5 -53.070312 16.957031 -32.800781 31.875 -18.40625 C 46.800781 -4.019531 67.992188 3.171875 95.453125 3.171875 C 119.484375 3.171875 138.820312 -2.238281 153.46875 -13.0625 C 168.125 -23.894531 177.171875 -39.210938 180.609375 -59.015625 Z M 180.609375 -59.015625 "/></g></g></g><g fill="#ffffff" fill-opacity="1"><g transform="translate(189.68026, 635.284979)"><g><path d="M 181.796875 -158.421875 L 181.796875 0 L 117.234375 0 L 117.234375 -22.1875 C 107.734375 -5.28125 94.269531 3.171875 76.84375 3.171875 C 55.1875 3.171875 38.546875 -4.019531 26.921875 -18.40625 C 15.304688 -32.800781 9.5 -53.070312 9.5 -79.21875 C 9.5 -105.625 15.304688 -125.953125 26.921875 -140.203125 C 38.546875 -154.460938 55.1875 -161.59375 76.84375 -161.59375 C 94.53125 -161.59375 107.992188 -153.273438 117.234375 -136.640625 L 117.234375 -158.421875 Z M 95.453125 -48.71875 C 102.578125 -48.71875 107.988281 -51.359375 111.6875 -56.640625 C 115.382812 -61.921875 117.234375 -69.445312 117.234375 -79.21875 C 117.234375 -99.8125 109.972656 -110.109375 95.453125 -110.109375 C 80.398438 -110.109375 72.875 -99.8125 72.875 -79.21875 C 72.875 -69.445312 74.785156 -61.921875 78.609375 -56.640625 C 82.441406 -51.359375 88.054688 -48.71875 95.453125 -48.71875 Z M 95.453125 -48.71875 "/></g></g></g><g fill="#ffffff" fill-opacity="1"><g transform="translate(384.112376, 635.284979)"><g><path d="M 122.78125 -161.59375 C 133.082031 -161.59375 142.71875 -159.28125 151.6875 -154.65625 C 160.664062 -150.039062 167.796875 -142.71875 173.078125 -132.6875 L 129.125 -91.890625 C 121.195312 -102.710938 111.425781 -108.125 99.8125 -108.125 C 94.269531 -108.125 89.582031 -104.492188 85.75 -97.234375 C 81.914062 -89.972656 79.078125 -79.476562 77.234375 -65.75 L 77.234375 0 L 13.078125 0 L 13.078125 -158.421875 L 77.234375 -158.421875 L 77.234375 -133.46875 C 86.472656 -151.695312 101.65625 -161.070312 122.78125 -161.59375 Z M 122.78125 -161.59375 "/></g></g></g><g fill="#ffffff" fill-opacity="1"><g transform="translate(560.3289, 635.284979)"><g><path d="M 68.921875 -158.421875 L 2.765625 -158.421875 L 76.046875 0 L 138.625 0 L 212.6875 -158.421875 L 146.15625 -158.421875 L 107.328125 -75.65625 Z M 68.921875 -158.421875 "/></g></g></g><g fill="#ffffff" fill-opacity="1"><g transform="translate(773.372687, 635.284979)"><g><path d="M 181.796875 -158.421875 L 181.796875 0 L 117.234375 0 L 117.234375 -22.1875 C 107.734375 -5.28125 94.269531 3.171875 76.84375 3.171875 C 55.1875 3.171875 38.546875 -4.019531 26.921875 -18.40625 C 15.304688 -32.800781 9.5 -53.070312 9.5 -79.21875 C 9.5 -105.625 15.304688 -125.953125 26.921875 -140.203125 C 38.546875 -154.460938 55.1875 -161.59375 76.84375 -161.59375 C 94.53125 -161.59375 107.992188 -153.273438 117.234375 -136.640625 L 117.234375 -158.421875 Z M 95.453125 -48.71875 C 102.578125 -48.71875 107.988281 -51.359375 111.6875 -56.640625 C 115.382812 -61.921875 117.234375 -69.445312 117.234375 -79.21875 C 117.234375 -99.8125 109.972656 -110.109375 95.453125 -110.109375 C 80.398438 -110.109375 72.875 -99.8125 72.875 -79.21875 C 72.875 -69.445312 74.785156 -61.921875 78.609375 -56.640625 C 82.441406 -51.359375 88.054688 -48.71875 95.453125 -48.71875 Z M 95.453125 -48.71875 "/></g></g></g><g fill="#ffffff" fill-opacity="1"><g transform="translate(967.804804, 635.284979)"><g><path d="M 77.625 -198.03125 L 77.625 0 L 13.078125 0 L 13.078125 -198.03125 Z M 77.625 -198.03125 "/></g></g></g><g fill="#ffffff" fill-opacity="1"><g transform="translate(1058.091031, 635.284979)"><g><path d="M 123.578125 -161.59375 C 143.378906 -161.59375 158.625 -155.320312 169.3125 -142.78125 C 180.007812 -130.238281 185.359375 -112.613281 185.359375 -89.90625 L 185.359375 0 L 120.796875 0 L 120.796875 -67.328125 C 120.796875 -80.535156 119.078125 -90.632812 115.640625 -97.625 C 112.210938 -104.625 107.203125 -108.125 100.609375 -108.125 C 89.253906 -108.125 81.460938 -98.222656 77.234375 -78.421875 L 77.234375 0 L 13.078125 0 L 13.078125 -198.03125 L 77.234375 -198.03125 L 77.234375 -133.46875 C 86.742188 -151.695312 102.191406 -161.070312 123.578125 -161.59375 Z M 123.578125 -161.59375 "/></g></g></g><g fill="#ffffff" fill-opacity="1"><g transform="translate(1253.711166, 635.284979)"><g><path d="M 95.453125 3.171875 C 67.992188 3.171875 46.800781 -4.019531 31.875 -18.40625 C 16.957031 -32.800781 9.5 -53.070312 9.5 -79.21875 C 9.5 -105.625 16.957031 -125.953125 31.875 -140.203125 C 46.800781 -154.460938 67.992188 -161.59375 95.453125 -161.59375 C 122.910156 -161.59375 144.164062 -154.460938 159.21875 -140.203125 C 174.269531 -125.953125 181.796875 -105.625 181.796875 -79.21875 C 181.796875 -53.070312 174.269531 -32.800781 159.21875 -18.40625 C 144.164062 -4.019531 122.910156 3.171875 95.453125 3.171875 Z M 95.453125 -48.71875 C 102.847656 -48.71875 108.523438 -51.359375 112.484375 -56.640625 C 116.441406 -61.921875 118.421875 -69.445312 118.421875 -79.21875 C 118.421875 -99.8125 110.765625 -110.109375 95.453125 -110.109375 C 80.398438 -110.109375 72.875 -99.8125 72.875 -79.21875 C 72.875 -69.445312 74.785156 -61.921875 78.609375 -56.640625 C 82.441406 -51.359375 88.054688 -48.71875 95.453125 -48.71875 Z M 95.453125 -48.71875 "/></g></g></g><g fill="#2b16bd" fill-opacity="1"><g transform="translate(667.601101, 317.599601)"><g><path d="M 195.5 4.234375 L 48.234375 -91.90625 L 57.125 -137.03125 L 229.78125 -169.71875 L 218.5 -112.46875 L 167.46875 -104.984375 L 130.8125 -98.875 L 162.40625 -79.296875 L 206.78125 -53.03125 Z M 195.5 4.234375 "/></g></g></g><g fill="#2b16bd" fill-opacity="1"><g transform="translate(853.271247, 354.205738)"><g><path d="M 22.890625 28.90625 L 181.5 -255.484375 L 235.8125 -244.78125 L 76.84375 39.546875 Z M 22.890625 28.90625 "/></g></g></g><g fill="#2b16bd" fill-opacity="1"><g transform="translate(1029.033925, 388.858551)"><g><path d="M 35.5 -27.296875 L 46.78125 -84.5625 L 97.8125 -92.03125 L 134.46875 -98.15625 L 102.875 -117.71875 L 58.5 -144 L 69.78125 -201.25 L 217.125 -105.5 L 208.234375 -60.375 Z M 35.5 -27.296875 "/></g></g></g></svg>